:version 1.10
:name ASF
:units
  mass 1
  length 1
  angle deg
:documentation
  ASF file generated by Kaydara
:root
  axis xyz
  order  tx ty tz rx ry rz
  position 0 0 0
  orientation 0 0 0
:bonedata
  begin
    id 1
    name lfemurDummy
    direction 0.61522 -0.761478 0.204097
    length 5.68318
    axis 0 -0 0 xyz
  end
  begin
    id 2
    name lfemur
    direction 0.34202 -0.939693 -5.84747e-008
    length 16.9147
    axis 0 -0 20 xyz
    dof rx ry rz
    limits( -inf , inf )
( -inf , inf )
( -inf , inf )

  end
  begin
    id 3
    name ltibia
    direction 0.34202 -0.939693 1.20839e-009
    length 18.0532
    axis 0 -0 20 xyz
    dof rz ry rx
    limits( -inf , inf )
( -inf , inf )
( -inf , inf )

  end
  begin
    id 4
    name lfoot
    direction 0.0841971 -0.23133 0.969225
    length 5.23822
    axis -90 7.62852e-016 20 xyz
    dof ry rx rz
    limits( -inf , inf )
( -inf , inf )
( -inf , inf )

  end
  begin
    id 5
    name ltoes
    direction 0 0 0
    length 0
    axis 0 0 0 xyz
    dof rz ry rx
    limits( -inf , inf )
( -inf , inf )
( -inf , inf )

  end
  begin
    id 6
    name rfemurDummy
    direction -0.625247 -0.75382 0.202044
    length 5.74091
    axis 0 -0 0 xyz
  end
  begin
    id 7
    name rfemur
    direction -0.34202 -0.939693 -1.47013e-008
    length 16.4922
    axis 0 -0 -20 xyz
    dof rx ry rz
    limits( -inf , inf )
( -inf , inf )
( -inf , inf )

  end
  begin
    id 8
    name rtibia
    direction -0.34202 -0.939693 -7.74345e-010
    length 18.2421
    axis 0 -0 -20 xyz
    dof rz ry rx
    limits( -inf , inf )
( -inf , inf )
( -inf , inf )

  end
  begin
    id 9
    name rfoot
    direction -0.124331 -0.341598 0.931586
    length 5.45787
    axis -90 -7.62852e-016 -20 xyz
    dof ry rx rz
    limits( -inf , inf )
( -inf , inf )
( -inf , inf )

  end
  begin
    id 10
    name rtoes
    direction 0 0 0
    length 0
    axis 0 0 0 xyz
    dof rz ry rx
    limits( -inf , inf )
( -inf , inf )
( -inf , inf )

  end
  begin
    id 11
    name lowerbackDummy
    direction 0 0 0
    length 0
    axis 0 -0 0 xyz
  end
  begin
    id 12
    name lowerback
    direction -0.0218484 0.994884 -0.0986304
    length 4.45607
    axis 0 -0 0 xyz
    dof rx ry rz
    limits( -inf , inf )
( -inf , inf )
( -inf , inf )

  end
  begin
    id 13
    name upperback
    direction -0.00973057 0.999717 -0.0217111
    length 4.47449
    axis 0 -0 0 xyz
    dof rx ry rz
    limits( -inf , inf )
( -inf , inf )
( -inf , inf )

  end
  begin
    id 14
    name thorax
    direction -0.000928171 0.999699 0.0245198
    length 4.50973
    axis 0 -0 0 xyz
    dof rx ry rz
    limits( -inf , inf )
( -inf , inf )
( -inf , inf )

  end
  begin
    id 15
    name rclavicle
    direction -0.9009 0.425937 -0.0834055
    length 7.28587
    axis 0 -0 0 xyz
    dof rx ry rz
    limits( -inf , inf )
( -inf , inf )
( -inf , inf )

  end
  begin
    id 16
    name rhumerus
    direction -1 -2.23604e-007 -1.42637e-007
    length 13.5704
    axis 180 30 90 xyz
    dof rx ry rz
    limits( -inf , inf )
( -inf , inf )
( -inf , inf )

  end
  begin
    id 17
    name rradius
    direction -1 5.68281e-008 -4.4952e-007
    length 8.06782
    axis 180 30 90 xyz
    dof rz ry rx
    limits( -inf , inf )
( -inf , inf )
( -inf , inf )

  end
  begin
    id 18
    name rwrist
    direction -1 1.51393e-007 1.38143e-007
    length 4.03391
    axis -90 -90 0 xyz
    dof rz rx ry
    limits( -inf , inf )
( -inf , inf )
( -inf , inf )

  end
  begin
    id 19
    name rthumb
    direction 0 0 0
    length 0
    axis 0 0 0 xyz
    dof ry rx rz
    limits( -inf , inf )
( -inf , inf )
( -inf , inf )

  end
  begin
    id 20
    name rhand
    direction -1 -3.34077e-007 -5.59631e-007
    length 1.29744
    axis -90 -90 0 xyz
    dof ry rx rz
    limits( -inf , inf )
( -inf , inf )
( -inf , inf )

  end
  begin
    id 21
    name rfingers
    direction 0 0 0
    length 0
    axis 0 0 0 xyz
    dof rz ry rx
    limits( -inf , inf )
( -inf , inf )
( -inf , inf )

  end
  begin
    id 22
    name lclavicle
    direction 0.940017 0.332249 -0.0773232
    length 8.29589
    axis 0 -0 0 xyz
    dof rx ry rz
    limits( -inf , inf )
( -inf , inf )
( -inf , inf )

  end
  begin
    id 23
    name lhumerus
    direction 1 7.41158e-008 -1.44768e-008
    length 12.0042
    axis 180 -30 -90 xyz
    dof rx ry rz
    limits( -inf , inf )
( -inf , inf )
( -inf , inf )

  end
  begin
    id 24
    name lradius
    direction 1 -1.32972e-007 3.10821e-007
    length 8.1902
    axis 180 -30 -90 xyz
    dof rz ry rx
    limits( -inf , inf )
( -inf , inf )
( -inf , inf )

  end
  begin
    id 25
    name lwrist
    direction 1 3.08957e-007 4.01394e-007
    length 4.09509
    axis -90 90 0 xyz
    dof rz rx ry
    limits( -inf , inf )
( -inf , inf )
( -inf , inf )

  end
  begin
    id 26
    name lthumb
    direction 0 0 0
    length 0
    axis 0 0 0 xyz
    dof ry rx rz
    limits( -inf , inf )
( -inf , inf )
( -inf , inf )

  end
  begin
    id 27
    name lhand
    direction 1 -1.64125e-007 -6.99514e-007
    length 1.37229
    axis -90 90 0 xyz
    dof ry rx rz
    limits( -inf , inf )
( -inf , inf )
( -inf , inf )

  end
  begin
    id 28
    name lfingers
    direction 0 0 0
    length 0
    axis 0 0 0 xyz
    dof rz ry rx
    limits( -inf , inf )
( -inf , inf )
( -inf , inf )

  end
  begin
    id 29
    name lowerneck
    direction -0.030798 0.998024 0.0547665
    length 3.93918
    axis 0 -0 0 xyz
    dof rx ry rz
    limits( -inf , inf )
( -inf , inf )
( -inf , inf )

  end
  begin
    id 30
    name upperneck
    direction 0.0531588 0.996611 -0.0627736
    length 3.95491
    axis 0 -0 0 xyz
    dof rx ry rz
    limits( -inf , inf )
( -inf , inf )
( -inf , inf )

  end
  begin
    id 31
    name head
    direction 0 0 0
    length 0
    axis 0 0 0 xyz
    dof rx ry rz
    limits( -inf , inf )
( -inf , inf )
( -inf , inf )

  end
:hierarchy
  begin
    root lfemurDummy rfemurDummy lowerbackDummy
    lfemurDummy lfemur
    lfemur ltibia
    ltibia lfoot
    lfoot ltoes
    rfemurDummy rfemur
    rfemur rtibia
    rtibia rfoot
    rfoot rtoes
    lowerbackDummy lowerback
    lowerback upperback
    upperback thorax
    thorax rclavicle lclavicle lowerneck
    rclavicle rhumerus
    rhumerus rradius
    rradius rwrist
    rwrist rthumb rhand
    rhand rfingers
    lclavicle lhumerus
    lhumerus lradius
    lradius lwrist
    lwrist lthumb lhand
    lhand lfingers
    lowerneck upperneck
    upperneck head
  end

:SAMPLES-PER-SECOND 30
:FULLY-SPECIFIED
:DEGREES
56
root  1.185715574 32.51533208 -1.130655525 1.011001587 -70.16300201 -25.852005
lowerback  9.859160423 5.458849907 -1.192620039
upperback  3.061500072 6.916880131 -3.148740053
thorax  -2.055130005 3.402709961 -3.37458992
lowerneck  -4.565179825 8.911789894 -3.369469881
upperneck  10.54049969 11.45079994 8.262980461
head  3.544049978 5.895589828 3.821660042
lclavicle  0 -9.442270133e-015 7.951389973e-016
lhumerus  -1.538779974 -24.52519989 84.2845993
lradius  2.61011146e-031 -2.378268741e-031 137.6609955
lwrist  0 -1.765562519e-031 9.107299805
lhand  -1.496451383e-031 -27.76390076 20.11240005
lfingers  90 7.125020027 -90
lthumb  89.89689403 5.08795885 91.16245106
rclavicle  0 -9.442270133e-015 7.951389973e-016
rhumerus  -2.105600119 22.87560081 -76.54889679
rradius  -2.622775803e-031 2.364295059e-031 137.9669952
rwrist  7.062250077e-031 -0 1.678940058
rhand  -7.920061211e-032 -33.2840004 9.303460121
rfingers  -90 -7.125020027 -90
rthumb  -92.93752616 -24.25625642 -97.11982154
rfemur  0.5706400275 5.090280056 9.762949944
rtibia  -0 0 81.58809662
rfoot  -4.773591197e-032 -22.38419914 -2.664769888
rtoes  5.373923086 19.29304026 -105.8922705
lfemur  -26.34760094 -4.483170033 9.06595993
ltibia  -0 0 77.67949677
lfoot  4.693373478e-032 -19.87190056 -3.263119936
ltoes  -4.250644065 -19.5611806 -102.515957
57
root  1.316726677 32.45088773 -1.140668918 0.2290039062 -70.28299713 -24.29200745
lowerback  10.47659969 5.538040161 -1.578600049
upperback  3.210239887 6.951960087 -3.135550022
thorax  -2.28331995 3.412050009 -3.211639881
lowerneck  -4.2740798 8.88146019 -3.139650106
upperneck  10.04100037 11.43130016 7.966060162
head  3.345669985 5.876170158 3.631419897
lclavicle  0 -9.442270133e-015 7.951389973e-016
lhumerus  -1.920860052 -24.34379959 84.51760101
lradius  2.61637023e-031 -2.371381634e-031 137.8119965
lwrist  -7.062250077e-031 -1.765562519e-031 8.887949944
lhand  -1.496451383e-031 -27.76390076 20.11240005
lfingers  90 7.125020027 -90
lthumb  89.89689403 5.08795885 91.16245106
rclavicle  0 -9.442270133e-015 7.951389973e-016
rhumerus  -2.369590044 23.5265007 -76.81189728
rradius  -2.641631937e-031 2.343208216e-031 138.4259949
rwrist  7.062250077e-031 -0 2.729599953
rhand  -7.920061211e-032 -33.2840004 9.303460121
rfingers  -90 -7.125020027 -90
rthumb  -92.93752616 -24.25625642 -97.11982154
rfemur  -0.4939930141 5.477640152 9.074399948
rtibia  -0 0 81.99639893
rfoot  -7.182916682e-032 -22.8166008 -2.110290051
rtoes  5.373923086 19.29304026 -105.8922705
lfemur  -27.40889931 -4.334690094 8.634149551
ltibia  -0 0 77.86820221
lfoot  4.683063003e-032 -19.51989937 -4.198969841
ltoes  -4.250644065 -19.5611806 -102.515957
58
root  1.467202217 32.39689023 -1.155013362 -0.08200073242 -70.45200348 -23.22399902
lowerback  11.1335001 5.537740231 -1.782320023
upperback  3.433429956 6.89839983 -3.073750019
thorax  -2.442369938 3.378000021 -3.086380005
lowerneck  -4.197259903 8.923339844 -2.913889885
upperneck  9.561889648 11.52299976 7.549739838
head  3.196820021 5.91012001 3.422899961
lclavicle  0 -9.442270133e-015 7.951389973e-016
lhumerus  -2.152889967 -23.99699974 84.48059845
lradius  2.624508524e-031 -2.362371487e-031 138.0090027
lwrist  -7.062250077e-031 -1.765562519e-031 8.840330124
lhand  -1.496451383e-031 -27.76390076 20.11240005
lfingers  90 7.125020027 -90
lthumb  89.89689403 5.08795885 91.16245106
rclavicle  0 -9.442270133e-015 7.951389973e-016
rhumerus  -2.473210096 24.35379982 -77.10469818
rradius  -2.659832437e-031 2.322527813e-031 138.8730011
rwrist  1.059337512e-030 -0 3.286839962
rhand  -7.920061211e-032 -33.2840004 9.303460121
rfingers  -90 -7.125020027 -90
rthumb  -92.93752616 -24.25625642 -97.11982154
rfemur  -1.54587996 5.857439995 8.577690125
rtibia  -0 0 82.28170013
rfoot  -6.01033092e-032 -23.36700058 -1.16110003
rtoes  5.373923086 19.29304026 -105.8922705
lfemur  -28.45000076 -4.009890079 8.410779953
ltibia  -0 0 78.01860046
lfoot  9.337701132e-032 -19.02179909 -5.004650116
ltoes  -4.250644065 -19.5611806 -102.515957
59
root  1.625546696 32.37488814 -1.173377788 -0.1730041504 -70.68499756 -22.37199402
lowerback  11.78960037 5.591179848 -1.868350029
upperback  3.685359955 6.929979801 -2.958189964
thorax  -2.55911994 3.386559963 -2.978110075
lowerneck  -4.089869976 8.946299553 -2.799499989
upperneck  9.06359005 11.59780025 7.113440037
head  3.032999992 5.930990219 3.22529006
lclavicle  0 -9.442270133e-015 7.951389973e-016
lhumerus  -2.155999899 -23.83839989 84.46649933
lradius  2.630149414e-031 -2.356089578e-031 138.1459961
lwrist  -7.062250077e-031 -0 8.664290428
lhand  -1.496451383e-031 -27.76390076 20.11240005
lfingers  90 7.125020027 -90
lthumb  89.89689403 5.08795885 91.16245106
rclavicle  0 -9.442270133e-015 7.951389973e-016
rhumerus  -2.551929951 24.8810997 -77.25879669
rradius  -2.682044097e-031 2.296842071e-031 139.423996
rwrist  7.062250077e-031 -3.531125038e-031 2.74868989
rhand  -7.920061211e-032 -33.2840004 9.303460121
rfingers  -90 -7.125020027 -90
rthumb  -92.93752616 -24.25625642 -97.11982154
rfemur  -2.574800014 6.268509865 8.230859756
rtibia  -0 0 82.41770172
rfoot  -5.428682842e-032 -23.83609962 -0.6502680182
rtoes  5.373923086 19.29304026 -105.8922705
lfemur  -29.44650078 -3.645200014 8.187979698
ltibia  -0 0 78.0963974
lfoot  9.309719855e-032 -18.51580048 -5.068180084
ltoes  -4.250644065 -19.5611806 -102.515957
60
root  1.792700084 32.38355682 -1.195082233 0.03500366211 -70.95999908 -21.78300476
lowerback  12.31989956 5.651979923 -1.878919959
upperback  4.009930134 6.98883009 -2.781140089
thorax  -2.528460026 3.409440041 -2.832870007
lowerneck  -3.892519951 8.948399544 -2.752330065
upperneck  8.364310265 11.6619997 6.558350086
head  2.789499998 5.939889908 2.985379934
lclavicle  0 -9.442270133e-015 7.951389973e-016
lhumerus  -1.830060005 -23.64979935 84.4509964
lradius  2.632204614e-031 -2.353793302e-031 138.1959991
lwrist  -1.412450015e-030 -1.765562519e-031 8.440719604
lhand  -1.496451383e-031 -27.76390076 20.11240005
lfingers  90 7.125020027 -90
lthumb  89.89689403 5.08795885 91.16245106
rclavicle  0 -9.442270133e-015 7.951389973e-016
rhumerus  -2.541110039 25.43230057 -77.32420349
rradius  -2.699722831e-031 2.276036176e-031 139.8670044
rwrist  7.062250077e-031 -3.531125038e-031 2.159689903
rhand  -7.920061211e-032 -33.2840004 9.303460121
rfingers  -90 -7.125020027 -90
rthumb  -92.93752616 -24.25625642 -97.11982154
rfemur  -3.585690022 6.643449783 7.990719795
rtibia  -0 0 82.40470123
rfoot  -4.846586521e-032 -24.39430046 -1.081719995
rtoes  5.373923086 19.29304026 -105.8922705
lfemur  -30.41889954 -3.26838994 8.032629967
ltibia  -0 0 78.0786972
lfoot  4.641037311e-032 -17.9993 -5.266300201
ltoes  -4.250644065 -19.5611806 -102.515957
61
root  1.977495509 32.4233348 -1.231544412 -0.08399963379 -71.17700195 -20.83000183
lowerback  12.90849972 5.714890003 -1.993469954
upperback  4.37169981 7.027329922 -2.679009914
thorax  -2.492340088 3.41940999 -2.709589958
lowerneck  -3.729779959 8.931879997 -2.708199978
upperneck  7.600450039 11.69369984 6.082530022
head  2.530679941 5.937809944 2.774110079
lclavicle  0 -9.442270133e-015 7.951389973e-016
lhumerus  -1.249119997 -23.3906002 84.21600342
lradius  2.629696963e-031 -2.356594559e-031 138.1349945
lwrist  -7.062250077e-031 -1.765562519e-031 8.67675972
lhand  -1.496451383e-031 -27.76390076 20.11240005
lfingers  90 7.125020027 -90
lthumb  89.89689403 5.08795885 91.16245106
rclavicle  0 -9.442270133e-015 7.951389973e-016
rhumerus  -2.470829964 25.95000076 -77.47840118
rradius  -2.710023106e-031 2.26376209e-031 140.1269989
rwrist  1.059337512e-030 -0 1.803940058
rhand  -7.920061211e-032 -33.2840004 9.303460121
rfingers  -90 -7.125020027 -90
rthumb  -92.93752616 -24.25625642 -97.11982154
rfemur  -4.597499847 6.910950184 7.606820107
rtibia  -0 0 82.30039978
rfoot  -6.088873842e-032 -25.02249908 -1.274119973
rtoes  5.373923086 19.29304026 -105.8922705
lfemur  -31.37689972 -2.970220089 7.714570045
ltibia  -0 0 77.92579651
lfoot  9.25120761e-032 -17.40130043 -5.569149971
ltoes  -4.250644065 -19.5611806 -102.515957
